<?xml version="1.0" encoding="utf-8"?>
<!-- Generator: Adobe Illustrator 19.1.0, SVG Export Plug-In . SVG Version: 6.00 Build 0)  -->
<svg version="1.1" id="Layer_1" xmlns="http://www.w3.org/2000/svg" xmlns:xlink="http://www.w3.org/1999/xlink" x="0px" y="0px"
	 viewBox="-351 82 46 37" style="enable-background:new -351 82 46 37;" xml:space="preserve">
<style type="text/css">
	.st0{fill:#E95E0C;}
</style>
<path class="st0" d="M-304.9899902,86.3730011c-1.6929932,0.7429962-3.5120239,1.2449951-5.4219971,1.4710007
	c1.9489746-1.1570053,3.4459839-2.987999,4.151001-5.1699982c-1.8240051,1.0699997-3.8450012,1.8479996-5.9960022,2.2669983
	c-1.7220154-1.8170013-4.1759949-2.951004-6.8919983-2.951004c-6.0940247,0-10.5740051,5.6290054-9.1970215,11.4749985
	c-7.8469849-0.3889923-14.8049927-4.109993-19.4620056-9.7639999c-2.4729919,4.2000046-1.2829895,9.6949997,2.9220276,12.477005
	c-1.5470276-0.0480042-3.0040283-0.4690018-4.276001-1.1689987c-0.1030273,4.3300018,3.0319824,8.3789978,7.572998,9.2819977
	c-1.32901,0.3580017-2.7850037,0.4400024-4.2640076,0.1609955c1.2009888,3.7110062,4.6879883,6.4140015,8.8200073,6.4880066
	c-3.9700012,3.0800018-8.9690247,4.4559937-13.9790039,3.8710022c4.1789856,2.6519928,9.1419983,4.1989899,14.473999,4.1989899
	c17.5299988,0,27.4339905-14.6549988,26.8370056-27.7999954C-307.8559875,89.8919983-306.2550049,88.2460022-304.9899902,86.3730011
	z"/>
</svg>
