<svg xmlns="http://www.w3.org/2000/svg" xmlns:xlink="http://www.w3.org/1999/xlink" preserveAspectRatio="xMidYMid" width="41.312" height="41.38" viewBox="0 0 41.312 41.38">
  <defs>
    <style>
      .cls-1 {
        fill: #e95e0c;
        fill-rule: evenodd;
      }
    </style>
  </defs>
  <path d="M36.305,-0.010 L5.008,-0.010 C2.237,-0.010 -0.008,2.239 -0.008,5.014 L-0.008,36.366 C-0.008,39.141 2.237,41.390 5.008,41.390 L36.305,41.390 C39.075,41.390 41.320,39.141 41.320,36.366 L41.320,5.014 C41.320,2.239 39.075,-0.010 36.305,-0.010 ZM13.138,34.456 L7.467,34.456 L7.467,16.102 L13.138,16.102 L13.138,34.456 ZM10.275,13.698 C8.423,13.698 6.921,12.182 6.921,10.312 C6.921,8.441 8.423,6.924 10.275,6.924 C12.127,6.924 13.629,8.441 13.629,10.312 C13.629,12.182 12.127,13.698 10.275,13.698 ZM34.391,34.456 L28.747,34.456 C28.747,34.456 28.747,27.464 28.747,24.821 C28.747,22.179 27.745,20.704 25.659,20.704 C23.389,20.704 22.203,22.240 22.203,24.821 C22.203,27.648 22.203,34.456 22.203,34.456 L16.764,34.456 L16.764,16.102 L22.203,16.102 L22.203,18.574 C22.203,18.574 23.839,15.542 27.725,15.542 C31.610,15.542 34.391,17.919 34.391,22.834 C34.391,27.750 34.391,34.456 34.391,34.456 Z" class="cls-1"/>
</svg>
