<?xml version="1.0" encoding="utf-8"?>
<!-- Generator: Adobe Illustrator 19.1.0, SVG Export Plug-In . SVG Version: 6.00 Build 0)  -->
<svg version="1.1" id="Layer_1" xmlns="http://www.w3.org/2000/svg" xmlns:xlink="http://www.w3.org/1999/xlink" x="0px" y="0px"
	 viewBox="0 0 1111.7503662 531.5548706" enable-background="new 0 0 1111.7503662 531.5548706" xml:space="preserve">
<g>
	<path fill="#E95E0C" d="M290.6701355,402.9803467c-4.140625-9.5673828-9.8275452-17.9755859-16.9388733-25.2207031
		c-7.1171875-7.2382812-15.6173706-12.9306641-25.444519-17.0712891
		c-9.8330078-4.1347656-20.3247986-6.2080078-31.4429626-6.2080078c-11.3857422,0-21.9299774,2.0732422-31.6301727,6.2080078
		c-9.7001953,4.140625-18.1121979,9.8330078-25.223526,17.0712891c-4.3795166,4.4576416-8.1910553,9.3594971-11.4408722,14.6967773
		c-3.2594604-5.3618774-7.0828705-10.2839966-11.4755096-14.7592773
		c-7.1171875-7.2382812-15.5864105-12.9306641-25.4145355-17.0712891
		c-9.8320312-4.1347656-20.3088303-6.2080078-31.4279709-6.2080078c-11.3847656,0-21.9219933,2.0732422-31.621212,6.2080078
		c-9.7011719,4.140625-18.1094341,9.8330078-25.2207623,17.0712891
		c-7.1171875,7.2451172-12.8957815,15.6533203-17.028595,25.2207031C2.2180474,412.4901123,0,422.8387451,0,433.9578857v84.9716797
		c0,3.3642578,1.2492676,6.1474609,3.4504395,8.3417969c2.1933594,2.1943359,5.0523682,3.2978516,8.4176025,3.2978516
		c3.3574219,0,6.3872681-1.1035156,8.5884399-3.2978516C22.6498413,525.0770264,24,522.2938232,24,518.9295654v-87.2998047
		c0-7.7607422,1.2775879-15.1318359,4.2541504-22.1162109c2.9707031-6.984375,6.8800049-12.9980469,11.9229736-18.0419922
		c5.0449219-5.0439453,10.9400024-9.0517578,17.7954712-12.0283203c6.8515625-2.9707031,14.2649231-4.4619141,22.2844543-4.4619141
		c8.015625,0,15.4400787,1.4912109,22.2975006,4.4619141c6.8496094,2.9765625,12.7981644,6.984375,17.8411331,12.0283203
		c5.0449219,5.0439453,9.0475235,11.0576172,12.024086,18.0419922c2.9707031,6.984375,4.4612579,14.3554688,4.4612579,22.1162109
		L137,518.9920654c0,3.3642578,1.0468445,6.1474609,3.2480164,8.3417969
		c2.1943359,2.1943359,4.9516449,3.2978516,8.3168793,3.2978516c3.3583984,0,6.0393219-1.1035156,8.2395172-3.2978516
		C158.9987488,525.1395264,160,522.3563232,160,518.9920654v-87.2998047c0-7.7607422,1.5751648-15.1318359,4.5517273-22.1162109
		c2.9707031-6.984375,7.0292816-12.9980469,12.0732269-18.0419922s11.0136566-9.0517578,17.8701019-12.0283203
		c6.8510742-2.9707031,14.3017578-4.4619141,22.3222656-4.4619141c8.0146484,0,15.4587402,1.4912109,22.3151855,4.4619141
		c6.8505859,2.9765625,12.8074951,6.984375,17.8514404,12.0283203s8.8141785,11.0576172,11.790741,18.0419922
		C271.7453918,416.5604248,273,423.9315186,273,431.6922607v87.2998047c0,3.3642578,1.3356628,6.1474609,3.5358582,8.3417969
		c2.1953125,2.1943359,5.0965271,3.2978516,8.4617615,3.2978516c3.3583984,0,6.321991-1.1035156,8.5231628-3.2978516
		C295.7151184,525.1395264,297,522.3563232,297,518.9920654v-84.9716797
		C297,422.9012451,294.8049011,412.5526123,290.6701355,402.9803467z"/>
	<path fill="#E95E0C" d="M156.5581055,263.5574341c-2.2006836,2.1943359-4.9833984,3.2978516-8.3422852,3.2978516
		c-3.3642578,0-6.1469727-1.1035156-8.3417969-3.2978516c-2.2006836-2.1943359-3.2978516-4.9775391-3.2978516-8.3417969v-87.2998047
		c0-7.7607422-1.4916992-15.1318359-4.4619141-22.1162109c-2.9770508-6.984375-6.984375-12.9980469-12.0283203-18.0419922
		s-10.9970703-9.0517578-17.8481445-12.0283203c-6.8564453-2.9707031-14.2949219-4.4619141-22.3095703-4.4619141
		c-8.0209961,0-15.4594727,1.4912109-22.3100586,4.4619141c-6.8569336,2.9765625-12.8041992,6.984375-17.8481445,12.0283203
		s-9.0576172,11.0576172-12.027832,18.0419922c-2.9770508,6.984375-4.4624023,14.3554688-4.4624023,22.1162109v87.2998047
		c0,3.3642578-1.1030273,6.1474609-3.2978516,8.3417969c-2.2006836,2.1943359-4.9833984,3.2978516-8.3417969,3.2978516
		c-3.3647461,0-6.1474609-1.1035156-8.3422852-3.2978516C1.097168,261.3630981,0,258.579895,0,255.2156372v-84.9716797
		c0-11.1191406,2.0673828-21.4677734,6.2080078-31.0400391c4.1347656-9.5673828,9.7607422-17.9755859,16.8779297-25.2207031
		c7.1113281-7.2382812,15.5200195-12.9306641,25.2202148-17.0712891c9.699707-4.1347656,20.2363281-6.2080078,31.6220703-6.2080078
		c11.1186523,0,21.5942383,2.0732422,31.4277344,6.2080078c9.8271484,4.140625,18.296875,9.8330078,25.4140625,17.0712891
		c7.1113281,7.2451172,12.7373047,15.6533203,16.8779297,25.2207031c4.1347656,9.5722656,6.2080078,19.9208984,6.2080078,31.0400391
		v84.9716797C159.855957,258.579895,158.7524414,261.3630981,156.5581055,263.5574341z"/>
	<path fill="#E95E0C" d="M240.1679688,56.3977661c-2.5888672,2.7158203-5.8198242,4.0742188-9.7001953,4.0742188
		c-3.8798828,0-7.2446289-1.3583984-10.0878906-4.0742188c-2.8491211-2.7158203-4.2680664-6.0136719-4.2680664-9.8945312
		c0-3.8798828,1.4189453-7.1777344,4.2680664-9.8935547c2.8432617-2.7158203,6.2080078-4.0742188,10.0878906-4.0742188
		c3.8803711,0,7.1113281,1.3583984,9.7001953,4.0742188c2.5825195,2.7158203,3.8798828,6.0136719,3.8798828,9.8935547
		C244.0478516,50.3840942,242.7504883,53.6819458,240.1679688,56.3977661z M238.6162109,262.7815552
		c-2.0737305,2.1943359-4.7895508,3.2978516-8.1484375,3.2978516c-3.3642578,0-6.2075195-1.1035156-8.5356445-3.2978516
		s-3.4921875-4.9775391-3.4921875-8.3417969V103.1194458c0-3.3583984,1.1640625-6.140625,3.4921875-8.3417969
		c2.328125-2.1943359,5.1713867-3.2978516,8.5356445-3.2978516c3.3588867,0,6.074707,1.1035156,8.1484375,3.2978516
		c2.0668945,2.2011719,3.1040039,4.9833984,3.1040039,8.3417969v151.3203125
		C241.7202148,257.8040161,240.6831055,260.5872192,238.6162109,262.7815552z"/>
	<path fill="#E95E0C" d="M822.3509521,318.4938354c-2.5888672,2.7158203-5.8198242,4.0742188-9.7001953,4.0742188
		c-3.8798828,0-7.2446289-1.3583984-10.0878906-4.0742188c-2.8491211-2.7158203-4.2680664-6.0136719-4.2680664-9.8945312
		c0-3.8798828,1.4189453-7.1777344,4.2680664-9.8935547c2.8432617-2.7158203,6.2080078-4.0742188,10.0878906-4.0742188
		c3.8803711,0,7.1113281,1.3583984,9.7001953,4.0742188c2.5825195,2.7158203,3.8798828,6.0136719,3.8798828,9.8935547
		C826.230835,312.4801636,824.9334717,315.7780151,822.3509521,318.4938354z M820.7991943,524.8776245
		c-2.0737305,2.1943359-4.7895508,3.2978516-8.1484375,3.2978516c-3.3642578,0-6.2075195-1.1035156-8.5356445-3.2978516
		s-3.4921875-4.9775391-3.4921875-8.3417969V365.2155151c0-3.3583984,1.1640625-6.140625,3.4921875-8.3417969
		c2.328125-2.1943359,5.1713867-3.2978516,8.5356445-3.2978516c3.3588867,0,6.074707,1.1035156,8.1484375,3.2978516
		c2.0668945,2.2011719,3.1040039,4.9833984,3.1040039,8.3417969v151.3203125
		C823.9031982,519.9000854,822.8660889,522.6832886,820.7991943,524.8776245z"/>
	<path fill="#E95E0C" d="M827.774231,213.0117188c-4.5283203,10.8642578-10.7363281,20.2431641-18.6240234,28.1308594
		c-7.8925781,7.8925781-17.1386719,14.1005859-27.7412109,18.6240234
		c-10.609375,4.5224609-21.9892578,6.7890625-34.1445312,6.7890625c-14.7441406,0-28.1298828-3.2373047-40.1582031-9.6992188
		c-12.0273438-6.4628906-21.1455078-15.5205078-27.3535156-27.1601562v23.6679688
		c0,3.3642578-1.1035156,6.1474609-3.2978516,8.3417969c-2.2011719,2.1943359-4.9833984,3.2978516-8.3417969,3.2978516
		c-3.3652344,0-6.1474609-1.1035156-8.3427734-3.2978516c-2.2001953-2.1943359-3.2978516-4.9775391-3.2978516-8.3417969V11.640625
		c0-3.359375,1.0976562-6.1416016,3.2978516-8.3427734C661.9656372,1.1035156,664.7478638,0,668.1130981,0
		c3.3583984,0,6.140625,1.1035156,8.3417969,3.2978516c2.1943359,2.2011719,3.2978516,4.9833984,3.2978516,8.3427734v114.0712891
		c5.9472656-10.6035156,14.9375-19.3994141,26.9658203-26.3837891s25.5410156-10.4755859,40.5458984-10.4755859
		c12.1552734,0,23.5351562,2.2666016,34.1445312,6.7900391c10.6025391,4.5283203,19.8486328,10.7363281,27.7412109,18.6240234
		c7.8876953,7.8925781,14.0957031,17.265625,18.6240234,28.1298828c4.5234375,10.8632812,6.7900391,22.6367188,6.7900391,35.3076172
		C834.56427,190.3808594,832.2976685,202.1484375,827.774231,213.0117188z M806.0466919,149.9619141
		c-3.2373047-8.4023438-7.7597656-15.5800781-13.5800781-21.5341797
		c-5.8203125-5.9472656-12.7431641-10.6025391-20.7578125-13.9677734
		c-8.0205078-3.3583984-16.6845703-5.0439453-25.9960938-5.0439453c-9.3125,0-18.0419922,1.7460938-26.1904297,5.2382812
		c-8.1474609,3.4921875-15.1318359,8.3417969-20.9511719,14.5498047
		c-5.8203125,6.2080078-10.4160156,13.453125-13.7744141,21.7285156c-3.3642578,8.28125-5.0439453,17.2050781-5.0439453,26.7714844
		c0,9.5722656,1.6796875,18.4970703,5.0439453,26.7724609c3.3583984,8.28125,7.9541016,15.5195312,13.7744141,21.7275391
		c5.8193359,6.2080078,12.8037109,11.0576172,20.9511719,14.5498047c8.1484375,3.4921875,16.8779297,5.2382812,26.1904297,5.2382812
		c9.3115234,0,17.9755859-1.6796875,25.9960938-5.0439453c8.0146484-3.3583984,14.9375-8.0146484,20.7578125-13.9677734
		c5.8203125-5.9472656,10.3427734-13.1259766,13.5800781-21.5341797c3.2314453-8.4023438,4.8496094-17.6542969,4.8496094-27.7421875
		S809.2781372,158.3710938,806.0466919,149.9619141z"/>
	<path fill="#E95E0C" d="M1102.8265381,184.9876099h-138.515625c0.2548828,8.796875,2.1337891,17.0117188,5.6259766,24.6376953
		c3.4921875,7.6328125,8.1474609,14.2958984,13.9677734,19.9824219
		c5.8203125,5.6923828,12.6103516,10.1542969,20.3701172,13.3857422c7.7597656,3.2373047,16.1621094,4.8505859,25.2197266,4.8505859
		c12.9316406,0,23.9228516-2.5224609,32.9804688-7.5664062c9.0507812-5.0439453,17.1992188-11.5732422,24.4433594-19.59375
		c2.328125-2.5830078,4.7841797-3.8798828,7.3720703-3.8798828c2.0673828,0,4.1347656,0.7753906,6.2080078,2.3271484
		c2.328125,2.0742188,3.4921875,4.5292969,3.4921875,7.3720703c0,2.328125-0.7753906,4.4013672-2.328125,6.2080078
		c-3.3642578,4.4013672-7.5048828,8.7304688-12.4160156,12.9980469
		c-4.9160156,4.2685547-10.5419922,8.0214844-16.8779297,11.2519531
		c-6.3408203,3.2373047-13.1914062,5.8203125-20.5634766,7.7607422c-7.3720703,1.9394531-15.0712891,2.9091797-23.0859375,2.9091797
		c-12.4160156,0-23.9960938-2.3271484-34.7265625-6.9833984c-10.7363281-4.65625-20.0488281-10.9248047-27.9355469-18.8183594
		c-7.8935547-7.8867188-14.1621094-17.265625-18.8183594-28.1298828s-6.984375-22.5039062-6.984375-34.9199219
		s2.1953125-24.0556641,6.5966797-34.9199219c4.3955078-10.8642578,10.4755859-20.2363281,18.2353516-28.1298828
		c7.7607422-7.8876953,16.8789062-14.1621094,27.3544922-18.8183594s21.921875-6.9833984,34.3378906-6.9833984
		c12.1552734,0,23.4072266,2.3271484,33.7558594,6.9833984c10.3427734,4.65625,19.3339844,10.9306641,26.9658203,18.8183594
		c7.6269531,7.8935547,13.5800781,17.0722656,17.8486328,27.5478516
		c4.2675781,10.4755859,6.4013672,21.6669922,6.4013672,33.5615234
		C1111.7503662,182.2717896,1108.7738037,184.9876099,1102.8265381,184.9876099z M1082.2630615,144.8294067
		c-3.3652344-7.1113281-7.7607422-13.2519531-13.1923828-18.4296875
		c-5.4316406-5.1708984-11.7070312-9.2451172-18.8183594-12.2216797c-7.1171875-2.9707031-14.9375-4.4619141-23.4736328-4.4619141
		s-16.4296875,1.4912109-23.6679688,4.4619141c-7.2451172,2.9765625-13.5800781,7.0507812-19.0117188,12.2216797
		c-5.4326172,5.1777344-9.8945312,11.2519531-13.3867188,18.2363281
		c-3.4912109,6.9833984-5.6259766,14.6162109-6.4013672,22.8916016h124.1601562
		C1087.6947021,159.5130005,1085.62146,151.9465942,1082.2630615,144.8294067z"/>
	<path fill="#E95E0C" d="M515.9840698,477.428894c-4.65625,10.7363281-10.9975586,20.1152344-19.012207,28.1298828
		c-8.0205078,8.0205078-17.3994141,14.3554688-28.1298828,19.0117188c-10.7368164,4.65625-22.3100586,6.984375-34.7260742,6.984375
		s-23.9956055-2.328125-34.7260742-6.984375c-10.7368164-4.65625-20.1152344-10.9912109-28.1298828-19.0117188
		c-8.0209961-8.0146484-14.355957-17.3935547-19.012207-28.1298828
		c-4.6557617-10.7304688-6.9838867-22.3105469-6.9838867-34.7265625s2.328125-23.9892578,6.9838867-34.7255859
		c4.65625-10.7304688,10.9912109-20.109375,19.012207-28.1298828c8.0146484-8.0146484,17.3930664-14.3564453,28.1298828-19.0117188
		c10.7304688-4.65625,22.3100586-6.984375,34.7260742-6.984375s23.9892578,2.328125,34.7260742,6.984375
		c10.7304688,4.6552734,20.109375,10.9970703,28.1298828,19.0117188c8.0146484,8.0205078,14.355957,17.3994141,19.012207,28.1298828
		c4.6557617,10.7363281,6.9838867,22.3095703,6.9838867,34.7255859S520.6398315,466.6984253,515.9840698,477.428894z
		 M495.0319214,416.3185425c-3.3647461-8.2753906-7.9541016-15.5195312-13.7739258-21.7275391
		c-5.8203125-6.2080078-12.8041992-11.1191406-20.9521484-14.7441406
		c-8.1479492-3.6191406-16.8779297-5.4326172-26.1899414-5.4326172s-17.9814453,1.8134766-25.9960938,5.4326172
		c-8.0205078,3.625-14.9379883,8.5361328-20.7578125,14.7441406c-5.8203125,6.2080078-10.4155273,13.4521484-13.7739258,21.7275391
		c-3.3647461,8.28125-5.0444336,17.0722656-5.0444336,26.3837891c0,9.3125,1.6796875,18.109375,5.0444336,26.3847656
		c3.3583984,8.28125,7.9536133,15.5195312,13.7739258,21.7275391c5.8198242,6.2080078,12.7373047,11.125,20.7578125,14.7441406
		c8.0146484,3.625,16.684082,5.4316406,25.9960938,5.4316406s18.0419922-1.8066406,26.1899414-5.4316406
		c8.1479492-3.6191406,15.1318359-8.5361328,20.9521484-14.7441406
		c5.8198242-6.2080078,10.4091797-13.4462891,13.7739258-21.7275391c3.3583984-8.2753906,5.0439453-17.0722656,5.0439453-26.3847656
		C500.0758667,433.3908081,498.3903198,424.5997925,495.0319214,416.3185425z"/>
	<path fill="#E95E0C" d="M745.7714233,406.0501709c-4.5283203-10.8642578-10.7363281-20.2363281-18.6240234-28.1298828
		c-7.8925781-7.8876953-17.1386719-14.0957031-27.7412109-18.6240234
		c-10.609375-4.5224609-21.9892578-6.7900391-34.1445312-6.7900391c-15.0043945,0-28.3925171,3.4921875-40.4208374,10.4755859
		C612.8129883,369.9661865,604,378.7630615,598,389.3656006V168.0203857c0-11.1191406-2.1950684-21.4677734-6.329834-31.0400391
		c-4.140625-9.5673828-9.8275757-17.9755859-16.9389038-25.2207031
		c-7.1171875-7.2382812-15.6173706-12.9306641-25.444519-17.0712891
		c-9.8330078-4.1347656-20.3247681-6.2080078-31.4429321-6.2080078c-11.3857422,0-21.9299927,2.0732422-31.630188,6.2080078
		c-9.7001953,4.140625-18.1122437,9.8330078-25.2235718,17.0712891c-4.3795166,4.4576416-8.19104,9.3594971-11.4408569,14.6967773
		c-3.2594604-5.3618774-7.0828247-10.2839966-11.4754639-14.7592773
		c-7.1171875-7.2382812-15.5864258-12.9306641-25.4145508-17.0712891
		c-9.8320312-4.1347656-20.3088379-6.2080078-31.4279785-6.2080078c-11.3847656,0-21.9219971,2.0732422-31.6212158,6.2080078
		c-9.7011719,4.140625-18.109436,9.8330078-25.2207642,17.0712891c-7.1171875,7.2451172-12.895813,15.6533203-17.0286255,25.2207031
		C303.2180176,146.4901123,301,156.8387451,301,167.9578857v84.9716797c0,3.3642578,1.2492676,6.1474609,3.4504395,8.3417969
		c2.1933594,2.1943359,5.0523682,3.2978516,8.4176025,3.2978516c3.3574219,0,6.3872681-1.1035156,8.5884399-3.2978516
		C323.6498413,259.0770264,325,256.2938232,325,252.9295654v-87.2998047c0-7.7607422,1.2775879-15.1318359,4.2541504-22.1162109
		c2.9707031-6.984375,6.8800049-12.9980469,11.9229736-18.0419922c5.0449219-5.0439453,10.9400024-9.0517578,17.7954712-12.0283203
		c6.8515625-2.9707031,14.2649536-4.4619141,22.2844849-4.4619141c8.015625,0,15.4400635,1.4912109,22.2974854,4.4619141
		c6.8496094,2.9765625,12.7981567,6.984375,17.8411255,12.0283203c5.0449219,5.0439453,9.0474854,11.0576172,12.0240479,18.0419922
		c2.9707031,6.984375,4.4613037,14.3554688,4.4613037,22.1162109L438,252.9920654
		c0,3.3642578,1.046875,6.1474609,3.2480469,8.3417969c2.1943359,2.1943359,4.9515991,3.2978516,8.3168335,3.2978516
		c3.3583984,0,6.0393677-1.1035156,8.239563-3.2978516C459.9987793,259.1395264,461,256.3563232,461,252.9920654v-87.2998047
		c0-7.7607422,1.5751953-15.1318359,4.5517578-22.1162109c2.9707031-6.984375,7.0292358-12.9980469,12.0731812-18.0419922
		s11.0136719-9.0517578,17.8701172-12.0283203c6.8510742-2.9707031,14.3017578-4.4619141,22.3222656-4.4619141
		c8.0146484,0,15.4587402,1.4912109,22.3151855,4.4619141c6.8505859,2.9765625,12.8074951,6.984375,17.8514404,12.0283203
		s8.814209,11.0576172,11.7907715,18.0419922C572.7454224,150.5604248,574,157.9315186,574,165.6922607v351.3256836
		c0,3.3652344,1.3325195,6.1474609,3.5332031,8.3417969c2.1943359,2.1953125,5.0944214,3.2978516,8.4591675,3.2978516
		c3.3588867,0,6.3253784-1.1025391,8.526062-3.2978516C596.7127686,523.1654053,598,520.3831787,598,517.0179443v-23.6679688
		c6,11.6396484,15.2011719,20.6972656,27.2290039,27.1601562s25.3515015,9.7001953,40.0951538,9.7001953
		c12.1552734,0,23.5039062-2.2675781,34.1132812-6.7900391c10.6025391-4.5224609,19.8330078-10.7304688,27.7255859-18.6240234
		c7.8876953-7.8876953,14.0878906-17.2666016,18.6162109-28.1298828
		c4.5234375-10.8642578,6.7861328-22.6318359,6.7861328-35.3085938
		C752.5653687,428.6878662,750.2948608,416.9144287,745.7714233,406.0501709z M724.0438843,469.0999756
		c-3.2373047,8.4091797-7.7597656,15.5869141-13.5800781,21.5341797
		c-5.8203125,5.953125-12.7431641,10.609375-20.7578125,13.9677734c-8.0205078,3.3652344-16.6845703,5.0439453-25.9960938,5.0439453
		c-9.3120117,0-18.0419922-1.7460938-26.1899414-5.2382812c-8.1479492-3.4912109-15.1323242-8.3417969-20.9521484-14.5498047
		s-10.4155273-13.4462891-13.7739258-21.7275391c-3.3647461-8.2753906-5.0439453-17.1992188-5.0439453-26.7724609
		c0-9.5664062,1.6791992-18.4902344,5.0439453-26.7714844c3.3583984-8.2753906,7.9541016-15.5205078,13.7739258-21.7285156
		s12.8041992-11.0576172,20.9521484-14.5498047s16.8779297-5.2382812,26.1899414-5.2382812
		c9.3115234,0,17.9755859,1.6855469,25.9960938,5.0439453c8.0146484,3.3652344,14.9375,8.0214844,20.7578125,13.96875
		c5.8203125,5.953125,10.3427734,13.1308594,13.5800781,21.5332031c3.2314453,8.4091797,4.8496094,17.6542969,4.8496094,27.7421875
		S727.2753296,460.6976318,724.0438843,469.0999756z"/>
	<path fill="#E95E0C" d="M899,12.4165039c0-3.359375-0.8580322-6.1416016-2.925415-8.3427734
		c-2.0732422-2.1943359-4.699585-3.2978516-8.0579834-3.2978516c-3.3652344,0-6.2021484,1.1035156-8.5302734,3.2978516
		C877.1582031,6.2749023,876,9.0571289,876,12.4165039v505.7655029c0,3.3652344,1.2028809,6.0810547,3.5310059,8.1484375
		s5.1902466,3.1035156,8.555481,3.1035156c3.3583984,0,5.9047852-1.0361328,7.9785156-3.1035156
		C898.1323853,524.2630615,899,521.5472412,899,518.1820068V12.4165039z"/>
	<path fill="#E95E0C" d="M1102.8265381,448.9103394h-138.515625c0.2548828,8.796875,2.1337891,17.0117188,5.6259766,24.6386719
		c3.4921875,7.6318359,8.1474609,14.2949219,13.9677734,19.9814453
		c5.8203125,5.6923828,12.6103516,10.1552734,20.3701172,13.3857422c7.7597656,3.2382812,16.1621094,4.8505859,25.2197266,4.8505859
		c12.9316406,0,23.9228516-2.5224609,32.9804688-7.5664062c9.0507812-5.0439453,17.1992188-11.5732422,24.4433594-19.59375
		c2.328125-2.5830078,4.7841797-3.8798828,7.3720703-3.8798828c2.0673828,0,4.1347656,0.7753906,6.2080078,2.328125
		c2.328125,2.0732422,3.4921875,4.5283203,3.4921875,7.3720703c0,2.328125-0.7753906,4.4013672-2.328125,6.2080078
		c-3.3642578,4.4013672-7.5048828,8.7294922-12.4160156,12.9980469
		c-4.9160156,4.2675781-10.5419922,8.0205078-16.8779297,11.2519531
		c-6.3408203,3.2373047-13.1914062,5.8193359-20.5634766,7.7597656c-7.3720703,1.9394531-15.0712891,2.9101562-23.0859375,2.9101562
		c-12.4160156,0-23.9960938-2.328125-34.7265625-6.984375c-10.7363281-4.65625-20.0488281-10.9248047-27.9355469-18.8183594
		c-7.8935547-7.8867188-14.1621094-17.265625-18.8183594-28.1298828c-4.65625-10.8632812-6.984375-22.5039062-6.984375-34.9199219
		s2.1953125-24.0556641,6.5966797-34.9199219c4.3955078-10.8642578,10.4755859-20.2363281,18.2353516-28.1298828
		c7.7607422-7.8876953,16.8789062-14.1621094,27.3544922-18.8173828c10.4755859-4.65625,21.921875-6.984375,34.3378906-6.984375
		c12.1552734,0,23.4072266,2.328125,33.7558594,6.984375c10.3427734,4.6552734,19.3339844,10.9296875,26.9658203,18.8173828
		c7.6269531,7.8935547,13.5800781,17.0722656,17.8486328,27.5478516c4.2675781,10.4765625,6.4013672,21.6679688,6.4013672,33.5625
		C1111.7503662,446.194519,1108.7738037,448.9103394,1102.8265381,448.9103394z M1082.2630615,408.7521362
		c-3.3652344-7.1103516-7.7607422-13.2519531-13.1923828-18.4296875
		c-5.4316406-5.1708984-11.7070312-9.2451172-18.8183594-12.2216797c-7.1171875-2.9707031-14.9375-4.4619141-23.4736328-4.4619141
		s-16.4296875,1.4912109-23.6679688,4.4619141c-7.2451172,2.9765625-13.5800781,7.0507812-19.0117188,12.2216797
		c-5.4326172,5.1777344-9.8945312,11.2519531-13.3867188,18.2363281
		c-3.4912109,6.9833984-5.6259766,14.6162109-6.4013672,22.8916016h124.1601562
		C1087.6947021,423.43573,1085.62146,415.8703003,1082.2630615,408.7521362z"/>
</g>
</svg>
